<svg 
 xmlns="http://www.w3.org/2000/svg"
 xmlns:xlink="http://www.w3.org/1999/xlink"
 width="15px" height="15px">
<path fill-rule="evenodd"  opacity="0.702" fill="rgb(228, 80, 40)"
 d="M9.824,7.487 L14.497,12.160 C15.143,12.806 15.143,13.852 14.497,14.497 C13.852,15.142 12.806,15.142 12.161,14.497 L7.487,9.824 L2.814,14.497 C2.168,15.142 1.122,15.142 0.477,14.497 C-0.168,13.852 -0.168,12.806 0.477,12.160 L5.150,7.487 L0.477,2.813 C-0.168,2.168 -0.168,1.122 0.477,0.476 C1.122,-0.169 2.168,-0.169 2.814,0.476 L7.487,5.150 L12.161,0.476 C12.806,-0.169 13.852,-0.169 14.497,0.476 C15.143,1.122 15.143,2.168 14.497,2.813 L9.824,7.487 Z"/>
</svg>